<svg width="91" height="37" viewBox="0 0 91 37" fill="none" xmlns="http://www.w3.org/2000/svg">
<path fill-rule="evenodd" clip-rule="evenodd" d="M5.04961 10.8754H3.26415V18.5289H0.643555V1.11572H3.26415V8.09032H5.04961V1.11572H7.66993V18.5289H5.04961V10.8754Z" fill="white"/>
<path fill-rule="evenodd" clip-rule="evenodd" d="M12.2646 18.7577H11.7484C9.63683 18.7577 8.51074 17.6092 8.51074 15.4519V11.9583H11.1386V15.0066C11.1386 15.8038 11.3965 16.2255 12.0067 16.2255C12.64 16.2255 12.8748 15.8038 12.8748 14.7251V14.3265C12.8748 13.0842 12.7574 12.6387 11.7956 11.3961L10.1061 9.239C8.98001 7.78523 8.65161 6.65991 8.65161 4.92487V4.36234C8.65161 2.04104 9.82438 0.962646 11.9128 0.962646H12.4055C14.5873 0.962646 15.4319 1.92374 15.4319 3.98724V6.8476H12.8748V4.33888C12.8748 3.75262 12.7574 3.30713 12.1238 3.30713C11.4904 3.30713 11.3496 3.7057 11.3496 4.5263V4.85476C11.3496 5.83958 11.5374 6.37864 12.4287 7.52743L14.118 9.70796C15.3145 11.2553 15.6899 12.1466 15.6899 14.1157V14.6787C15.6899 17.2338 14.5873 18.7577 12.2646 18.7577Z" fill="white"/>
<path fill-rule="evenodd" clip-rule="evenodd" d="M22.4995 1.1156V3.64308H19.1541V8.20729H21.7791V10.8521H19.1541V15.8842H22.6387V18.5288H16.5288V1.1156H22.4995Z" fill="white"/>
<path fill-rule="evenodd" clip-rule="evenodd" d="M29.4949 12.6544L28.7831 6.21767L28.0954 12.6544H29.4949ZM29.7791 15.2519H27.8346L27.4789 18.5288H25.0831L27.2413 1.1156H30.4197L32.7205 18.5288H30.1354L29.7791 15.2519Z" fill="white"/>
<path fill-rule="evenodd" clip-rule="evenodd" d="M35.7731 8.27728H36.482C37.2145 8.27728 37.451 7.80915 37.451 7.03683V4.60276C37.451 3.85386 37.2855 3.47941 36.482 3.47941H35.7731V8.27728ZM35.7731 18.5288H33.1025V1.1156H37.4276C39.1998 1.1156 40.0979 1.8645 40.0979 3.80702V6.89631C40.0979 8.34754 39.4124 8.90908 38.94 9.11987C39.5306 9.37722 40.0979 9.84562 40.0979 11.0155V17.1244C40.0979 17.8265 40.2395 18.1538 40.358 18.4112V18.5288H37.7109C37.5926 18.3414 37.451 18.0372 37.451 17.101V11.8584C37.451 11.0858 37.3094 10.7582 36.4583 10.7582H35.7731V18.5288Z" fill="white"/>
<path fill-rule="evenodd" clip-rule="evenodd" d="M45.3263 3.64308V18.5288H42.7206V3.64308H40.5103V1.1156H47.5366V3.64308H45.3263Z" fill="white"/>
<path fill-rule="evenodd" clip-rule="evenodd" d="M53.6288 12.6544L52.9171 6.21767L52.2293 12.6544H53.6288ZM53.9131 15.2519H51.9682L51.6125 18.5288H49.2169L51.3754 1.1156H54.5534L56.8543 18.5288H54.2691L53.9131 15.2519Z" fill="white"/>
<path fill-rule="evenodd" clip-rule="evenodd" d="M59.6865 1.1156L61.9436 10.454V1.1156H64.3395V18.5288H62.1994L59.6865 8.51121V18.5288H57.3131V1.1156H59.6865Z" fill="white"/>
<path fill-rule="evenodd" clip-rule="evenodd" d="M68.0547 16.0008H68.6872C69.4835 16.0008 69.7178 15.5798 69.7178 14.6438V4.83696C69.7178 3.83044 69.4603 3.47941 68.8041 3.47941H68.0547V16.0008ZM65.4081 1.1156H69.4603C71.7317 1.1156 72.4345 2.40262 72.4345 4.46251V15.0648C72.4345 17.1944 71.6382 18.5288 69.4603 18.5288H65.4081V1.1156Z" fill="white"/>
<path fill-rule="evenodd" clip-rule="evenodd" d="M3.29027 33.9486H3.92251C4.71882 33.9486 4.95318 33.5276 4.95318 32.5916V22.7847C4.95318 21.7784 4.69565 21.4271 4.0397 21.4271H3.29027V33.9486ZM0.643555 19.0632H4.69565C6.9671 19.0632 7.66993 20.3505 7.66993 22.4099V33.0129C7.66993 35.1423 6.87363 36.4764 4.69565 36.4764H0.643555V19.0632Z" fill="white"/>
<path fill-rule="evenodd" clip-rule="evenodd" d="M14.6334 19.0632V21.591H11.2882V26.1548H13.9133V28.7999H11.2882V33.8321H14.7729V36.4764H8.66296V19.0632H14.6334Z" fill="white"/>
<path fill-rule="evenodd" clip-rule="evenodd" d="M19.0618 36.7053H18.5455C16.434 36.7053 15.3079 35.5566 15.3079 33.3993V29.9062H17.9357V32.9541C17.9357 33.7512 18.1937 34.1733 18.8035 34.1733C19.4371 34.1733 19.6719 33.7512 19.6719 32.6729V32.2743C19.6719 31.0317 19.5545 30.5862 18.5928 29.3437L16.9032 27.1864C15.7771 25.7329 15.4487 24.6079 15.4487 22.8732V22.3101C15.4487 19.9889 16.6215 18.9103 18.7099 18.9103H19.2026C21.3844 18.9103 22.229 19.8722 22.229 21.9348V24.7956H19.6719V22.2867C19.6719 21.7004 19.5545 21.255 18.9209 21.255C18.2876 21.255 18.1467 21.6535 18.1467 22.4741V22.8025C18.1467 23.7871 18.3345 24.3267 19.2258 25.4751L20.9151 27.6553C22.1116 29.2029 22.487 30.0938 22.487 32.0634V32.6262C22.487 35.1812 21.3844 36.7053 19.0618 36.7053Z" fill="white"/>
<mask id="mask0_260_42" style="mask-type:alpha" maskUnits="userSpaceOnUse" x="23" y="18" width="11" height="19">
<path d="M23.1843 18.9175H33.9003V36.6889H23.1843V18.9175Z" fill="#1A1919"/>
</mask>
<g mask="url(#mask0_260_42)">
<path fill-rule="evenodd" clip-rule="evenodd" d="M23.1843 36.4715H25.8574V19.0817H23.1843V36.4715Z" fill="white"/>
</g>
<mask id="mask1_260_42" style="mask-type:alpha" maskUnits="userSpaceOnUse" x="23" y="18" width="11" height="19">
<path d="M23.1843 18.9175H33.9003V36.6889H23.1843V18.9175Z" fill="#1A1919"/>
</mask>
<g mask="url(#mask1_260_42)">
<path fill-rule="evenodd" clip-rule="evenodd" d="M29.3352 36.7052C27.7741 36.7052 26.7808 35.3264 26.7808 33.5265V22.6573C26.7808 20.7176 27.5377 18.9175 30.0687 18.9175H30.5889C33.4513 18.9175 33.7825 20.7641 33.7825 22.8213V24.5978H31.1804V22.6339C31.1804 21.8629 30.991 21.4422 30.3291 21.4422C29.7613 21.4422 29.5009 21.8629 29.5009 22.6339V32.802C29.5009 33.6198 29.832 34.0408 30.3761 34.0408C31.0623 34.0408 31.3695 33.5733 31.3695 32.9186V28.5712H30.1631V25.9065H33.9005V36.4713H32.3867C32.3631 36.3778 32.1503 35.5132 31.9373 34.7653C31.7479 35.3497 30.849 36.7052 29.5009 36.7052H29.3352Z" fill="white"/>
</g>
<path fill-rule="evenodd" clip-rule="evenodd" d="M37.1562 19.0632L39.4133 28.4015V19.0632H41.8095V36.4764H39.6691L37.1562 26.459V36.4764H34.7831V19.0632H37.1562Z" fill="white"/>
<path fill-rule="evenodd" clip-rule="evenodd" d="M48.7704 36.7053H48.2542C46.1428 36.7053 45.0165 35.5566 45.0165 33.3993V29.9062H47.6443V32.9541C47.6443 33.7512 47.9023 34.1733 48.5124 34.1733C49.1457 34.1733 49.3802 33.7512 49.3802 32.6729V32.2743C49.3802 31.0317 49.2631 30.5862 48.3008 29.3437L46.6118 27.1864C45.4858 25.7329 45.1573 24.6079 45.1573 22.8732V22.3101C45.1573 19.9889 46.3304 18.9103 48.4185 18.9103H48.9112C51.093 18.9103 51.9376 19.8722 51.9376 21.9348V24.7956H49.3802V22.2867C49.3802 21.7004 49.2631 21.255 48.6295 21.255C47.9962 21.255 47.8556 21.6535 47.8556 22.4741V22.8025C47.8556 23.7871 48.0431 24.3267 48.9345 25.4751L50.6237 27.6553C51.8202 29.2029 52.1956 30.0938 52.1956 32.0634V32.6262C52.1956 35.1812 51.093 36.7053 48.7704 36.7053Z" fill="white"/>
<path fill-rule="evenodd" clip-rule="evenodd" d="M57.2534 32.9591V28.9085H59.8337V32.9356C59.8337 34.8092 59.2292 36.7053 56.6957 36.7053H56.1144C53.4644 36.7053 52.8837 34.7855 52.8837 33.0296V22.3991C52.8837 20.6201 53.6504 18.9103 56.0217 18.9103H56.6259C59.5083 18.9103 59.8337 20.8307 59.8337 22.54V25.6536H57.2534V22.5865C57.2534 21.8373 57.0211 21.4393 56.3706 21.4393C55.7193 21.4393 55.5567 21.8142 55.5567 22.5865V32.9356C55.5567 33.7083 55.8123 34.1297 56.3936 34.1297C57.0211 34.1297 57.2534 33.6614 57.2534 32.9591Z" fill="white"/>
<path fill-rule="evenodd" clip-rule="evenodd" d="M65.0784 28.8233H63.2929V36.4764H60.6726V19.0632H63.2929V26.0379H65.0784V19.0632H67.699V36.4764H65.0784V28.8233Z" fill="white"/>
<path fill-rule="evenodd" clip-rule="evenodd" d="M73.2472 22.774C73.2472 21.8608 72.942 21.4393 72.3316 21.4393C71.6508 21.4393 71.3921 21.8845 71.3921 22.774V32.7953C71.3921 33.5445 71.6036 34.1297 72.3549 34.1297C73.0595 34.1297 73.2472 33.5445 73.2472 32.7953V22.774ZM75.9475 32.6082C75.9475 35.0429 75.1254 36.7053 72.5663 36.7053H72.1199C69.584 36.7053 68.692 35.0429 68.692 32.6082V22.9143C68.692 20.5027 69.6078 18.9103 72.0964 18.9103H72.5428C75.1254 18.9103 75.9475 20.5027 75.9475 22.8909V32.6082Z" fill="white"/>
<path fill-rule="evenodd" clip-rule="evenodd" d="M81.2667 22.774C81.2667 21.8608 80.9613 21.4393 80.3509 21.4393C79.6701 21.4393 79.4116 21.8845 79.4116 22.774V32.7953C79.4116 33.5445 79.6228 34.1297 80.3741 34.1297C81.0788 34.1297 81.2667 33.5445 81.2667 32.7953V22.774ZM83.9669 32.6082C83.9669 35.0429 83.1451 36.7053 80.5856 36.7053H80.1395C77.6035 36.7053 76.7114 35.0429 76.7114 32.6082V22.9143C76.7114 20.5027 77.627 18.9103 80.116 18.9103H80.5624C83.1451 18.9103 83.9669 20.5027 83.9669 22.8909V32.6082Z" fill="white"/>
<path fill-rule="evenodd" clip-rule="evenodd" d="M87.6077 19.0632V33.785H90.8407V36.4764H84.96V19.0632H87.6077Z" fill="white"/>
</svg>
